<svg fill="none" height="362" viewBox="0 0 380 362" width="380" xmlns="http://www.w3.org/2000/svg"><path d="m291.32 170.58c-.945-.014-1.86.327-2.564.957s-1.146 1.503-1.236 2.443c.075.887.465 1.718 1.1 2.342.634.623 1.472.999 2.36 1.058 4.16-.02 4.86-6.82.34-6.8z" fill="#fff"/><path d="m254.74 178.76c.46-1.1-.22-1.7-3.36-3.14-1.24-.58-1.44-.3-5.6 9.46-.68 1.58 1.86 2 4.14 2.96 1.1-.94.84.3 4.82-9.28z" fill="#fff"/><path d="m267.42 207.38c1.58 3.18 1.38 4 2.94 2.94 4.18-2.62 4-3.24 4.22-1.52.76 4.3.82 5.22 2.4 4.76 3.72-1.06 3.78-.36 4-3.1-1.72-12.14-2.26-13.16-3.78-12-10.4 8.02-10.46 7.58-9.78 8.92z" fill="#fff"/><path d="m275.24 170.76c-.03-.759-.335-1.481-.857-2.033-.522-.551-1.227-.895-1.983-.967-.796.154-1.526.547-2.094 1.125-.568.579-.947 1.316-1.086 2.115-.037.762.215 1.51.704 2.095s1.18.966 1.936 1.065c.866-.099 1.672-.49 2.286-1.108s1-1.426 1.094-2.292z" fill="#fff"/><path d="m303.4 199c-.041-.859-.371-1.679-.938-2.325-.567-.647-1.336-1.082-2.182-1.235-.962.01-1.89.358-2.621.984-.731.625-1.219 1.487-1.379 2.436.075.882.473 1.705 1.119 2.311.646.605 1.493.95 2.378.967s1.745-.294 2.414-.873c.669-.58 1.1-1.387 1.209-2.265z" fill="#fff"/><path d="m327.34 188.24c-.6 0-1.08 0-1.22.32s.12 1.12-.44 1.24c-.663.095-1.337.095-2 0-.2 0-.24-.4-.38-.5-.236-.587-.661-1.077-1.209-1.392-.548-.316-1.185-.438-1.811-.348-.542.004-1.075.143-1.55.405s-.877.638-1.17 1.095c0 .12 0 .5-.36.5-.68 0-2 .2-2.16 0-.119-.437-.179-.887-.18-1.34-.18-1.78-1.5-1.42-5.5-1.38-2.9 0-4.5-.34-4.8 1.56-.42 2.52-.38 4.54 1.46 4.7 8.14.76 8.8 1.24 9.06-1.24 0-.32-.22-1.04.22-.96.9 0 1.1-.14 1.68.16.14 0 .1.48.16.8.184.689.591 1.298 1.157 1.733.566.434 1.26.67 1.973.67.714 0 1.407-.236 1.973-.67.566-.435.973-1.044 1.157-1.733.2-.5-.26-.84 1.3-.84 1.26 0 1.04.18 1.1.6s0 1.62.12 2.32c.24 1.18.64.7 6 .62.831-2.083 1.539-4.214 2.12-6.38-1.22.14-3.02 0-6.7.06z" fill="#fff"/><path d="m316.92 214.46c1.44-2-2.6-7.74-6.32-4s3.14 8.54 6.32 4z" fill="#fff"/><path d="m256.46 158.3c-1.1-.2-4 .6-4.3 3.06-.094.709.051 1.429.414 2.045.362.616.921 1.093 1.586 1.355.809.452 1.749.61 2.661.446s1.739-.64 2.339-1.346c.303-.529.472-1.123.493-1.732s-.107-1.214-.373-1.762c-.267-.548-.662-1.022-1.154-1.382-.491-.361-1.063-.595-1.666-.684z" fill="#fff"/><path d="m230.84 204.84s.84.42 2.24 1.06z" fill="#fff"/><path d="m356.16 201.7c.005.576-.105 1.147-.325 1.68-.22.532-.545 1.015-.955 1.42-1.1 1.08-.72-.74-4.86-.56-.8 0-1.82-1.32-1.86-2.88.022-.525.148-1.041.37-1.518.221-.477.535-.905.922-1.261.387-.355.841-.631 1.334-.812.494-.18 1.019-.261 1.544-.239s1.041.148 1.518.37c.477.221.905.535 1.261.922.355.387.631.84.812 1.334.18.494.261 1.019.239 1.544z" fill="#8dccf3"/><path d="m335.34 206.28c.906.04 1.764.42 2.402 1.066.638.645 1.009 1.507 1.038 2.414 0 1.76-2 4-3.38 4-1.009.006-1.985-.354-2.75-1.012-.764-.658-1.265-1.57-1.41-2.568.061-1.049.518-2.036 1.28-2.76.761-.724 1.769-1.132 2.82-1.14z" fill="#8dccf3"/><path d="m216.86 196.46c6.28 2.78 6.14 2.58 6 3.52s-.96 1.86-1.82 1.46c-2.967-1.138-5.837-2.516-8.58-4.12-.234-.202-.385-.482-.426-.788-.04-.306.033-.616.206-.872.76-1.22 2.26-.24 4.62.8z" fill="#8dccf3"/><path d="m221.54 189.64c1.3.56 4.72 1.8 4.58 2.72s-1.04 1.9-2 1.52c-8.36-3.7-9.26-3.72-8.98-4.86s.4-1.7.9-1.64 3.44 1.36 5.5 2.26z" fill="#8dccf3"/><path d="m229.54 184.36c.36.22-.28 2.84-1.26 2.4-3.098-1.164-6.1-2.569-8.98-4.2-.201-.189-.353-.425-.44-.687s-.108-.541-.06-.813c.035-.285.176-.545.394-.731.219-.185.5-.281.786-.269.68.12 9.1 4.06 9.56 4.3z" fill="#8dccf3"/><path d="m222.36 166.38c.964.179 1.828.706 2.429 1.48s.896 1.742.831 2.72c-.03.903-.402 1.761-1.041 2.399-.638.639-1.496 1.011-2.399 1.041-.87-.117-1.686-.489-2.344-1.069-.659-.58-1.131-1.343-1.356-2.191-.002-1.138.332-2.251.96-3.2.808-.719 1.84-1.136 2.92-1.18z" fill="#8dccf3"/><path d="m232.72 162.72c.016-.854.37-1.667.985-2.259.305-.294.664-.524 1.058-.679.394-.154.814-.23 1.237-.222s.84.099 1.228.268c.387.169.738.413 1.031.718.294.304.524.664.679 1.057.154.394.23.814.222 1.237-.031.922-.416 1.796-1.076 2.44-.659.645-1.542 1.01-2.464 1.02-.432-.029-.853-.146-1.237-.345s-.723-.475-.995-.812c-.272-.336-.472-.725-.587-1.142s-.143-.853-.081-1.281z" fill="#8dccf3"/><path d="m237.4 146.74c.182.815.084 1.667-.279 2.418-.363.752-.97 1.359-1.721 1.722-2.26 1.22-.78-4-4.96-4-.5 0 .86-2.92 4-2.96 1.56-.04 2.66 1.56 2.96 2.82z" fill="#8dccf3"/><path d="m320.2 180.74c14.66 6.54 12.3 5.02 13.3 7.14-2.14.74-.32.28-6.16.36-.6 0-1.08 0-1.22.32s.12 1.12-.44 1.24c-.663.095-1.337.095-2 0-.2 0-.24-.4-.38-.5-.271-.515-.672-.95-1.163-1.262-.492-.311-1.057-.488-1.638-.512s-1.159.105-1.675.374c-.515.269-.952.669-1.264 1.16 0 .14 0 .5-.36.5-.7 0-2 .2-2.16 0-.119-.437-.179-.887-.18-1.34-.18-1.78-1.5-1.42-5.5-1.38-2.9 0-4.5-.34-4.8 1.56-.42 2.52-.38 4.54 1.46 4.7 8.14.76 8.8 1.24 9.06-1.24 0-.32-.22-1.04.22-.96.9 0 1.12-.12 1.68.16.14 0 .1.48.16.8.184.689.591 1.298 1.157 1.733.566.434 1.259.67 1.973.67.713 0 1.407-.236 1.973-.67.566-.435.973-1.044 1.157-1.733.14-.34 0-.64.36-.76.607-.12 1.233-.12 1.84 0 .22 0 .16.3.2.52 0 .58 0 1.62.12 2.32s.22.78 1.02.78c6.7 0 4-3.72-9.68 28.22-5.88 13.74-7.16 19.54-9.66 18.38-26.3-12.22 8.2 3.24-76.8-36.54-4-2-2.56-1.52 4.36-17.16.8-1.76 6.5-16.8 15.6-34.9 2.28-4.4-2.92-4.2 69.44 28.02zm-3.28 33.72c1.44-2-2.6-7.74-6.32-4s3.14 8.54 6.32 4zm-13.52-15.46c-.041-.859-.371-1.679-.938-2.325-.567-.647-1.336-1.082-2.182-1.235-.962.01-1.89.358-2.621.984-.731.625-1.22 1.487-1.379 2.436.074.882.473 1.705 1.119 2.311.646.605 1.493.95 2.378.967s1.745-.294 2.414-.873c.669-.58 1.1-1.387 1.209-2.265zm-12.42-21.64c4.16 0 4.86-6.82.34-6.8-.947-.024-1.868.315-2.574.947-.706.631-1.145 1.509-1.226 2.453-.18 1.58 1.78 3.42 3.46 3.42zm-14 36.18c3.72-1.06 3.78-.36 4-3.1-1.72-12.14-2.26-13.16-3.78-12-10.36 8-10.42 7.58-9.74 8.92 1.58 3.18 1.38 4 2.94 2.94 4.18-2.62 4-3.24 4.22-1.52.72 4.32.78 5.22 2.36 4.78zm-1.74-42.8c-.03-.759-.335-1.481-.857-2.033-.522-.551-1.227-.895-1.983-.967-.799.155-1.531.551-2.099 1.133-.568.583-.945 1.325-1.081 2.127-.037.762.214 1.51.703 2.095.49.585 1.181.966 1.937 1.065.867-.096 1.675-.485 2.29-1.104.615-.618.999-1.429 1.09-2.296zm-16-6.9c.304-.536.471-1.138.487-1.754.015-.615-.122-1.225-.399-1.776-.277-.55-.685-1.023-1.189-1.377s-1.088-.579-1.699-.653c-1.1-.2-4 .6-4.3 3.06-.094.709.051 1.429.414 2.045.362.616.921 1.093 1.586 1.355.818.487 1.784.666 2.722.504.939-.161 1.789-.652 2.398-1.384zm-4.52 14.9c.46-1.1-.22-1.7-3.36-3.14-1.24-.58-1.44-.3-5.6 9.46-.68 1.58 1.86 2 4.14 2.96 1.12-.92.84.32 4.84-9.26z" fill="#fff59e"/><path d="m313.82 255c0 .74-.82 2.86-1.42 2.58-10-4.42-26.72-12.9-43.52-20.82-30.6-14.42-62.6-30-62.5-30.14s.7-2.52 2-2.18c6 2.48 25.36 12.26 44 21.22 16.8 8 32.9 15.38 38.16 18.14 9.92 5.2 22.04 10.12 23.28 11.2z" fill="#d8e9ff"/><path d="m364.64 201.58c2.2 5.32-1.88 13.74-4.4 18.94-11.46 23.64-12.76 25.6-21.16 28-1.48.42-.28-1.12 1.44-5.72.593-2.977 1.975-5.739 4-8 19.28-19.5 10-25.7 11.76-27.64 6.76-7.38-1.38-15.02-7.42-11.48-.739.392-1.387.935-1.904 1.593-.516.658-.89 1.416-1.096 2.227-.282.891-.348 1.837-.191 2.759.156.922.53 1.793 1.091 2.541.2.58-.16.84-.3 1.08-3.2 5.42-5.3 9.62-9.02 12.68-7 5.78-3.06 5.56-12 14.76-15.14 15.5-8.18 20.9-12.52 18.82-109-51.84-104.46-50.32-104.44-50.36 3.3-6.5 0-3.06 12.58 1.24 3.16 1.06 4.56-3.28 3.2-4.6-1.02-1-1.88-1.4-10.12-4.96-2-.84-1.52.56-.86-1.8.4-1.44-.32-1.06 8 2.74 4.2 2 4.84 1.64 6.18-.52.64-1.02.8-1.84.14-2.64-1.462-1.292-3.16-2.29-5-2.94-1.956-.923-3.959-1.744-6-2.46-1.16-.36-1.64-.18-1.64-.3 0-2.14.24-11.02 1.78-13.04.657 1.209 1.614 2.229 2.78 2.96 4.76 2.54 14-4.12 4.16-11.38 3.157-1.012 5.882-3.054 7.74-5.8 2.48-3.06 1.6-4.94 2.82-4.92 1.103-.065 2.164-.441 3.062-1.083.899-.643 1.597-1.526 2.015-2.548.418-1.023.539-2.142.349-3.23-.191-1.088-.685-2.1-1.426-2.919-2.6-3.34-9.58-1.7-10.22 3.52 0 .68.16.48-7.2 3.66h-.22c.035-.087.082-.167.14-.24 3.02-4.6 4.56-7.46 6-9.26 1.812-2.381 4.467-3.977 7.42-4.46 9.8-1.68 14 3.16 74 28.56 19.8 8.4 49.4 24.7 49.44 24.72 3.64 1.88 4.68 5.86 7.04 11.5zm-29.12 14.88c2.82 0 5.8-3.36 5.78-6.74.034-.853-.106-1.704-.411-2.501-.306-.797-.771-1.523-1.366-2.134-.596-.612-1.31-1.095-2.099-1.421s-1.636-.488-2.489-.476c-.854.012-1.696.198-2.475.547s-1.479.852-2.057 1.48c-.577.629-1.021 1.368-1.304 2.173-.282.806-.398 1.66-.339 2.512.086 1.746.832 3.395 2.086 4.613 1.255 1.218 2.926 1.914 4.674 1.947zm.22-28.44c1.24-3.34.42-2.56-17.02-10.48-4.84-2.2-36.22-16-40.16-17.84-18.74-8.4-26.52-14.5-29.14-9.12-10.54 21.72-19.62 43.2-23 50.52-2.3 4.96 1.78 4.9 26 16.36 36.48 17.18 49.2 23.7 53.72 26 2.6 1.28 4.46.54 5.38-.98 2-3.22 4.58-11.26 12-27.44 10.48-22.76 6.48-11.68 12.22-27.02zm-99.6-19.72c1.421-.026 2.777-.6 3.783-1.603 1.007-1.003 1.586-2.356 1.617-3.777-.68-8.4-11.5-7-11.14 0 .057 1.471.692 2.861 1.766 3.868s2.502 1.55 3.974 1.512zm-7.56 20c2.6-.22 4-4.16 1.42-5.44-9.82-4.88-10.28-4.9-11.4-4.18-1.54 1-2.68 4.18 0 5.46 9.28 4.2 8 3.48 9.98 4.1z" fill="#d8e9ff"/><path d="m136.48 171.36c1.26 2.26 3.62 4 3.48 7.16-.42 9.16.4 9.58-.92 9.04-19.28-8-18-6.36-26.66-8.66-5.86-1.56-7.54-3.18-18.92-5.6-19-4-14.2-4.16-24-4.9-1.2212-.041-2.4287-.271-3.58-.68-2.62-4.18 2.34-14.54 3.36-13.7 2 1.68 6.62.96 10.18 1.06 5.42.16 9.42.88 16.62 1.72 10.7 1.26 21.02 2.82 32.42 9.14 6.38 3.58 7.16 3.88 8.02 5.42z" fill="#84d492"/><path d="m213.68 26.0001c.68 4.92.7 4.98.4 5.28-4.42 4.34-6.56 4.8-16.72 9.76-48.52 23.74-101.14 36.3-101.22 35.46-15.32 1.8-12 3.04-34 3.36-7.62.12-9.58.18-11.72-.5-.66-.2-.92-1.14-1.14-2.12s-.36-2.48.42-2c10.98 2.46 38.1-1.4 49.26-3.38 41.72-9.86 97.42-33.28 110.66-43.08 3.04-2.28 3.96-3.54 4.06-2.78z" fill="#ffccce"/><path d="m106 5.50002c.1 2.84-3.64 3.2-6.32 2.98-3.88-.3-3.78-5.18.3-5.6 2.72-.28 6.02.12 6.02 2.62z" fill="#ffccce"/><path d="m104.86 61.88c.545 1.7553.999 3.5377 1.36 5.34-1.74.44-3.38.86-4.94 1.2-.96.22-1.06-3.44-3.4399-11.52-3.36-11.44-7.72-14.64-11.5-15.72-3.8125-.5659-7.6876-.5659-11.5 0-6 .9-9.6 2.1-12.44 6.54-2.2 3.46-5.76 6.94-2.64 20.8 1 4.44 1.38 4.94.6 5.02-1.36.14-2.52 0-3.52 0-1.7012-7.2076-2.0269-14.6716-.96-22 1.4096-4.7212 4.4138-8.8069 8.5-11.56 8-4 11.58-3.3 15.02-3.88 3.8318-.7425 7.7951-.396 11.44 1 10.4399 4.6 11.8599 19.5 14.0199 24.78z" fill="#ffccce"/><path d="m369.08 222.56c.8 2.78-.4 4.84-2.36 10-1.34 3.58.28 4.92 1.4 12.68.18 1.18-1.48 5.08-1.14 8.8.099 3.196-.445 6.379-1.6 9.36-1.026 2.733-2.426 5.311-4.16 7.66-1.74 2.74-3.42 7.8-9.58 12.46-14.82 11.22-6 12-14 6.92-1.793-.901-3.798-1.297-5.799-1.145-2.001.151-3.924.844-5.561 2.005-4.26 2.84-.28 1.04-15.54-.78-2.38-.3-2.72 2 1.8-19.48.5-2.44.86-4.9 1.44-7.32 1.46-6.16 3.08-7.2 3.26-10.26.34-6.36 6-14.3 10.7-18.28 7.42-6.34 5.24-9.46 10.74-13.5s6.52-8.46 10-13.52c1.56-2.24 5.42-.98 5.48 5.14-.138 2.753-.963 5.428-2.4 7.78-5.48 10.5-11.5 10.28-14 20.46-.42 1.68-2.66 4-1.56 6.86.18.44-.46 3.28 3.08 2.86 2.948-.411 5.75-1.537 8.162-3.281 2.413-1.743 4.362-4.049 5.678-6.719 8.94-17.86 7.02-13.48 8.64-16.88 5.88-12.5 3.84-14.12 7.32-1.82z" fill="#ffc6a6"/><path d="m228.76 150.16c1.74-1.02 2.14 1.38 2 2-.68 5.86-7.66 8.66-10.64 10.38-8.18 4.72-7.88 21.64-8 22.14-.96 4.6-2.14 7.78-7.78 18.94-3.3 6.56-8.96 4.12-8.46 6.8.16.88.72 1 1.42 1.02 6.26-.56 5.82-3.58 7.7-2.68 2.952 1.142 5.825 2.478 8.6 4-8.58 4.22-9.32 4-14.78 14.48-7.48 14.4-6.54 14.46-7.34 13.3-2.56-3.74-13.3-18.42-17.24-24.92-1.76-2.88-.6-1.18 6.12-8.64 5.42-6 6-7.4 9.14-15.3 2.155-4.857 3.778-9.933 4.84-15.14.98-3.22 2.92-8 3.74-11.28.68-2.7 1.52-4 13.16-17.4 5.04-5.74 6.36-5.2 9.3-6.18 4.38-1.46 2 .16-2 7.56-3.04 5.78-6 2.52-9.52 7.6-1.46 2.12-2.12 5.8-6.36 11.88-1.52 2.16-4.32 3.76-4 5.12.6 3.46 6.76-3.1 9.7-9.02 3.8-7.68 1.66-6.7 11.64-10.46 2.992-1.245 5.916-2.647 8.76-4.2z" fill="#ffc6a6"/><path d="m209.56 21.54c.74 0 2.22 1.04 1.14 2-4.46 4-2 3-9.22 6.88-10.6 5.6-9.66 4.9-16.52 8-8.68 4-8 4.26-8.54 2.6-2.42-8.92-2.78-7.3-4.42-12.76.88-.8 24.34-8.24 37.56-6.72z" fill="#ffccce"/><path d="m188 97.5c.24 2.2753-.261 4.567-1.428 6.535-1.168 1.968-2.94 3.506-5.052 4.385-.98.4-1.5 1.86-1.46 4.74.015 9.32-1.099 18.608-3.32 27.66-5.4 24.34-15.72 15.16-38.18 8-4.42-1.38-7.32 15.54-8.78 14.68-5.84-3.56-16.3-6.78-22.94-8.34-3.32-.78-24.44-2-24-3.46 2-7.34 2-7.12 2.94-10.16.38-1.4.9.32 5.86 0 3.48-.28 1.88-2.8 3.62-2.3 5 1.4 4.38.84 9.56-.16 1.04-.2 4 1.82 5.22-1.2s6.82-.16 9.48-5.32c3.12-6 3.04-6.38 2.9-8.82.011-.175-.019-.35-.088-.512-.069-.161-.175-.304-.309-.416-.134-.113-.293-.193-.464-.233-.171-.041-.348-.04-.519.001-.94 0-1 .62-1.14 1.38-1.88 9.22-5.56 8.86-7.36 9.44-.5.16.14-2 .4-4.4s-2.5-2.74-2.48-1.22c-.188 2.527-.867 4.993-2 7.26-.68 1.64-1 2-2.42.76-7.1-6.46-4.46-8.38-7-8-1.76.28.16 4.14 1.24 5.7 2 2.84 2.86 2.88 1.84 3.22-4.56 1.5-7.08-1.1-11.42-3.14s-4.14-5.6-5.84-5.12-.5 5.22 4.76 7.68c.4.2 2.5 1.32 2.32 1.64s-.44.66-.68.66c-1.1455.06-2.2941-.02-3.42-.24-4.68-1.18-5.74.36-6.18-.7-1.66-4.12-6.62.36-12.38-7.64-1.3-1.82 0-4.5-1.44-6.8s-5.08-6.44-6.54-8.88c-4.5-7.52 1.06-11.16-2.62-16s-4.26-5.9-4.32-12c0-7.5-1.54-.9 27.2-4.5 38.48-4.84 68.2-19.5 69.1-16.64.94 4.5255.364 9.2347-1.64 13.4-2.24 4.48 3.28 6 .12 10.96-1.04 1.62-3.32 2-2.56 4.68.6 2-2.98 2-1.76 4s4.92-.32 4.5-3.58c-.34-2.58 4.12-2.36 3.28-9.28-.2-1.66-2-4.16-1.24-5.42 2.254-4.7956 2.77-10.2257 1.46-15.36-.4-1.26-.6-.62 12-5.78 9.36-3.88 8.34-5.16 9.32 3 .18 1.5.42 3.14-.28 3.06-6.52-.68-11.32 5.76-11.34 11.04 0 1.78 1.66 1.76 2 .82.7-2.42.96-5.52 5.34-8.32 1.358-.6876 2.91-.8921 4.4-.58 1.28 0-1.28 13.66-.68 19.4.076 1.4769.574 2.901 1.435 4.1029.862 1.202 2.051 2.1312 3.425 2.6771 4.26 2.34 9.04-.74 9.56 3.64zm-12 28.18c.42-1.08.22-2-.76-2.42-9.04-4.26-5.24-2.54-13.68-7.88-2-1.22-2.98-.36-2.6 1.44 1.76 8.14 1.36 19.88 5.18 23.52 1.54 1.48 4 .42 5.58-1.86 2.547-4.029 4.652-8.32 6.28-12.8zm-6.46-32.68c.4-1.34.42-3.12-.88-3.64-2-.74-2.16 1.46-2.58 2.82.22 2.82 2.92 2.62 3.46.82zm-33.54 32.52c3.4-1.06 7.18-5.46 6.52-8.94-.05-.271-.194-.515-.406-.691s-.479-.273-.754-.273-.542.097-.754.273-.356.42-.406.691c-.16 2.52-3.7 7.68-9.12 6.22-8.96-2.38-13.7-11.56-12.88-16.9 0-4.94-.38-8 2-11.06 5.48-7.32 14-6.46 17.08-2.44 2 2.68 2 4.72 3.58 4.26 1.86-.58-1.22-6.18-4.18-8-6.92-4.12-14.76-1.22-18.92 5.04-2 3.16-1.76 5.82-2 10.28-1.34 14.36 11.32 24.32 20.24 21.54zm-2.5-16c.82-1.66 4.72-3.52 3.28-6.8-6.4-14.42-16.78-5.76-14.3 1.8.14.4.98.7 1.24.66.74-.12.88-2 .48-2 .176-1.023.423-2.032.74-3.02 1.12-2.88 5.62-4.28 8.8 2.66.62 1.42.7 1.6-.46 2.64-5.88 5.34-1.28 11.02 2 10.48.316-.018.615-.148.842-.368.228-.22.369-.514.398-.829s-.056-.63-.239-.887c-.184-.258-.454-.441-.761-.516-.429-.036-.842-.179-1.202-.416-.359-.237-.654-.56-.856-.939-.203-.38-.308-.805-.304-1.235.003-.431.114-.853.322-1.23zm-31.18 13.18c0 .56 2.32 1.78 2.2-.46-.18-3.06 1.46-12.32-1.24-11.64-1.42.36-1.04 2-1.06 2.78-.177 3.105-.143 6.219.1 9.32zm-9.08-.92c1.02 3.36 4.12 4.4 4.14 1.78-3.12-6.2-2.62-7.08-4.8-9.16-.56-.54-1.9-.86-2.12.58-.28 1.74.82.3 2.78 6.8zm-4.62 4.46c.36-.14.54-.72.76-1.04-.16-.5-.18-.9-.38-1.1-.7935-.817-1.6422-1.579-2.54-2.28-5.18-3.78-1.86-5.2-5.62-9.08-1.22-1.24-2.72-.3-1.78 1.32 3.68 6.32-.98 5.08 8 12 .229.147.4886.24.7591.271.2704.032.5444 0 .8009-.091zm-12 2.6c.1602.067.3321.102.5057.102.1737.001.3457-.033.5064-.099.1606-.066.3067-.163.4299-.285s.221-.268.288-.428.1017-.332.1023-.506c.0006-.173-.0331-.345-.099-.506s-.1628-.307-.2852-.43-.2679-.221-.4281-.288c-2.8-1.12-1.86-3.58-3.2-6.76-2.12-5.04-6.96-4-6.42-7.38 0 0 .28-1.46-1-1.54-1.64-.12-2.62 3.88.62 6 1.64 1.12 4.34 2.5 4.86 5.22s.26 5.58 4.12 6.9z" fill="#ffc6a6"/><path d="m170.48 32.66c4.1 11.04 4 10.46 3.34 10.74-14 5.7-44 17.36-65.08 23.14-.5-3-2.28-8.76-3.08-12-2-8.24-4.4-14.34-11.9999-19.26-7.6-4.92-28-.52-32.4 4-8.66 9.04-7.6001 11.78-8.1201 21.34.0661 4.3143.5348 8.6129 1.4001 12.84-5.18.52-3.8001-1.56-4.7401-20.58.0258-3.185.6149-6.3403 1.7401-9.32 2.82-9.28 11.66-16.36 19.32-22.32 9.3199-7.22 19.5799-10 21.7799-11.04 3.34-1.63998 2.88 1.56 8.74 1.08 3.22-.28 6.32-1.02 7.2-3.99998.44-1.48 20.46-5.48 35.14 0 9.64 3.55998 5.52.52 15.14 7.41998 2.364 1.2951 4.282 3.2751 5.5 5.68 4.02 7.58 3.64 5.7 6.12 12.28z" fill="#ff9c9f"/><path d="m98.38 68.36c.14.52-1.26.78-3.18 1.34-8.38 2.42-31.7 4.56-32 3.42-2.7-10.96-2.38-16.12-2.14-17.84.6145-2.5129 1.8292-4.8394 3.54-6.78 2.5-3.42 8.68-4.62 12.66-4.86 4.74-.26 9.46-1.34 13.54 4 4.46 5.82 5.58 13.52 7.58 20.72zm-18-1.38c1.68-.2 3.38-.1 3.04-1.78s-3.22-.42-4.82-1.14c-5.22-2.3-3.06-5.06-5.32-5.06-1 0-1.04.96-1.52 1.5-1.38 1.48-3.64-.3-3.76-2-.16-2 .94-4.88-1.02-4.12-.88.34-1.06 2-1.12 2.94-.1393.8853-.0543 1.7914.247 2.6354.3014.8439.8095 1.5989 1.478 2.1958.6685.5968 1.476 1.0166 2.3486 1.2207.8726.2042 1.7825.1864 2.6464-.0519 1.2-1.14 2.72 3.78 7.84 3.68z" fill="#ffd152"/><path d="m333.58 310.72s-8.34 48.34-8.52 49.06-8.88 3.44-14.12 1.46-15.04-.54-20.46-.92-13.22.56-12.5-3.62 23.18-37.3 26.62-58.66l18.64 2.16s-1.44 8.8 10.34 10.52z" fill="#ffc6a6"/><path d="m332.66 291.88c1.847-.112 3.686.333 5.277 1.278 1.591.944 2.862 2.345 3.648 4.021.786 1.675 1.051 3.548.76 5.376-.291 1.827-1.123 3.526-2.39 4.874-1.268 1.349-2.91 2.287-4.716 2.691s-3.692.257-5.413-.423c-1.722-.68-3.199-1.861-4.241-3.39-1.043-1.529-1.602-3.336-1.605-5.187-.07-2.375.804-4.681 2.431-6.413s3.874-2.749 6.249-2.827z" fill="#fff"/><path d="m238.48 351.76-32.48-63.66s-15.86 10.56-17.62 11.56-26.18 17.62-35 20.9l22.16 39.02c24 1.46 32-2.44 47.32-.26 8.82 1.26 18.14-2.76 15.62-7.56z" fill="#ffc6a6"/><path d="m150.94 62.04c.48 0 2.38 8.26.96 11.74s-3.18 4.76-2 7.14 2.54 7.16 0 9.54-2 3-2 4.28-3.18 4-5.24 4-1.76-2.22-4-5.86-10-6.36-14.12-3.34-7.78 3.82-7.3 11.74.3 12.38 2 14.62 3.32 6.18 2 9.36-5.08 8.88-10.8 10.32c0 0-1.1 2.22-5.72 1.74 0 0-6.66 1.42-9.68.64 0 0-3.16 2.54-9.36 1.42s-6.36-3.18-8.58-3.02-10.16-4.92-10.46-7.46 0-5.7-2.86-8.72-6.5-9.18-6.18-13.54.64-7.14-1.1-9.36-3.66-8-3.02-15.88c24.16.54 50-2.4 97.46-19.36z" fill="#ffd152"/><path d="m211.08 279.86c-2.98-12.4-22.94-40.46-32.64-55.84-16.82-26.62-40.58-40-69.6-45.32-5.14-.94-30.36-8-34-8.84-6.3469-.821-12.7731-.821-19.12 0-6.7094 1.524-13.0467 4.373-18.64 8.38-5.12 4-13.86 11.7-14.68 13.86s-12.4 23.28-13.31998 25.68c-.92 2.4-6.58 19-7.34 19.46-4.28 2.66.8 26.98 0 35.08-.800001 8.1 1.62 19.68.8 44.5s1.36 30 2.44 38.86 20.21998 0 26.43998 1.62 137.14 2.34 144.14 2.28l-22.16-39.02s34.48-21.54 46.88-28 10.8-12.7 10.8-12.7z" fill="#d3ffcf"/><path d="m160 115.8c.22 0 15.7 8.9 15.7 8.9s-4.92 16-10.68 15.02c-3.4-.72-5.02-23.92-5.02-23.92z" fill="#fff"/><g fill="#000001"><path d="m377.74 136.08c.96 0 2.18-.18 2.26.78-.14 1.48-4 .8-10.46 5.12-4.566 2.936-8.249 7.055-10.658 11.919s-3.454 10.29-3.022 15.701c.98 10.5 6.26 13.56 5.3 14.52-3.7 3.1-17.1-26 6.24-42.96 2-1.38 4-2.38 5.32-3.32-7.478-1.796-14.151-6.015-18.98-12-7.862-9.528-12.405-21.359-12.94-33.7-.74-13.62 3.02-20.48 4.34-24.62-2.88 1.34-12.5 10.84-30.52 15.22-19.74 4.8-39.52 0-46.56-20.92-.102.1513-.189.312-.26.48-4.42 15.76-24.76 32-42 34.68-2.4.38-4.64.36-7.54.62 4.354 5.047 7.391 11.094 8.84 17.6.74 3.14 2 16.5-.68 16.12-1.02-.14-.88-.92-.78-1.54 1.8-10.84-1.16-24-10.92-32.12-.463-.1966-.851-.5347-1.11-.9659s-.374-.9332-.33-1.4341c0-.9 3.12-.32 5.54-.12 20 1.76 48-21.08 47.64-39.7 0-.68.14-1.34.98-1.52 1.26-.26 1.32 1.18 1.68 3.1.405 3.7518 1.58 7.3796 3.452 10.656 1.872 3.2763 4.401 6.1307 7.428 8.384 8.28 6.22 19.46 7.14 29.68 5.46 21.5-3.52 33.32-15.26 39.18-20.84 2.4-2.3 3.44-3.58 4.26-2.78 2 2-11.54 8.88-10.46 34.26 1.2 27.54 20.1 44.18 35.08 43.92z"/><path d="m371 218.7c1.46 6.2 1.54 6.68.26 10.4-1.58 4.62-2.62 5.48-1.88 7.72 2.98 8.98 1.28 10.24.66 15.2-.5 3.88 2.46 8.14-9.8 26.96-4.68 7.18-9.16 7.58-14.86 14.74-4.32 5.4 1.56 10.42-8.28 17.64-2.56 1.88-1.7-5.08-7.12 25.58-4.34 24.42-3.62 24.38-5.24 24.42s-1.76-.9-1.6-2c1.52-10.78 6-35.8 8-45.84.28-1.44-.3 0-6-3.02-1.937-1.666-3.33-3.874-4-6.34-.24-.94-2.22-1.2-14.78-3.38-1.88-.34-6.28 16.38-21.18 46-1.862 3.747-3.946 7.381-6.24 10.88-1.22.8-2.74 0-2-1.64 14.1-28.24 5.04-5.46 24.14-51.88.44-1.08 1.88-2.76 1.32-4.9s1.42-6 2-7.8c.4-1.32 2-.74 2-1.66 4.56-31.5 6.3-29.38 4.78-30-9.52-4.4-71.88-34.38-94-45.02-1.18-.56-.88-.28-6.84 2.58-2.521 1.084-4.556 3.055-5.72 5.54-3.83 6.28-7.225 12.815-10.16 19.56-.42.9-1.58.48-.52 2.3 19.66 33.86 10 18.96 18.6 34.28 1.24 2.22.26 3.48-2.96 7.14-1.24 1.42-2.48 1.36-2 2.44 10.64 19.66 2.4 6.92 15.64 30.42 4.271 7.334 8.104 14.914 11.48 22.7 3.66 7.56 6.98 11.84 4.3 12.4s-10.9-22-20.94-38.14c-6-9.56-4.46-9.2-8.82-17.52s-4-8.48-4.9-7.72c-8.64 6.62-8.72 4.64-16.24 11.36-3.22 2.88-5.2 4.2-23.28 14.46-9.28 5.26-9.74 4.5-9.08 5.68 19.38 33.64 21.16 36.52 20.88 37.58-.44 1.76-1.8 1.8-2.52.52-11.14-19.82-7.8-12.88-21.12-36.8-1-1.78-4.54 3.48-8.64-1.6-8.96-11.1-3.64-7.72-15.88-30.56-3.12-6.38-2.88-9.54-6.46-20.38-6.94-20.52-15.02-41.86-6.6-62 .66-1.54 3-.74 2.1 1.12-10.22 21.18 7.54 58.56 10.42 70.88 1.44 6.24 4.66 10.24 11.14 24.14 3.6 7.72.7 5.1 7.02 13.14 3.48 4.46.16 5.02 33.4-13.58 7.12-4 7.76-6.98 15.58-11.24 7.06-3.82 13.16-9.18 14.52-12 2.32-4.9-37.4-68.4-51.42-79.54-6.46-5.14-15.02-11.42-21.84-10-5.58 1.14-6.16 1.58-6.66.44-.74-1.62 1.3-1.54 5.74-3.22-6.726-3.009-13.743-5.321-20.94-6.9-4-.8-10-3.36-14.78-4.56-8.16-2-15.06-3.4-18.86-4.34-1.68-.42-3.28-1.2-4.98-1.5-14.24-2.62-27.6-.8-40.48 10-8.6 7.16-9.36 7.16-13.72 15.36-5.42 10.32-8.32 12-17.48002 38.92-1.42 4.18-1.82 6.12-3.160001 5.3-1.34-.82-.500001-2.52.360001-5.3 4-12.38 2.18-6.66 6.58-17.78 5.62002-14.2 1.8-5.86 5.00002-11.62 7.82-14 9.18-17.64 14-21.82 11.62-10.16 18-15.56 35.1-17.04 2.2-.18-2.14-3.26 2-11.44.9314-2.647 2.7938-4.865 5.24-6.24 3.3625-1.637 6.9952-2.647 10.72-2.98 1.68.18 1.46-.8 2.98-5.5.52-1.6-2.44.8-4.2-2.52-1.08-2-7.3.82-12.92-8.44-.4883-.998-.6426-2.127-.44-3.22.82-5.56-11.88-10.14-8.54-24.34 1.12-4.78-6.16-3.08-5.04-20 .18-2.46-4.72-.68-4.9-6-.14-4-.24-5.04 1.06-5.44.98-.28-.74-1.78-.42-9.78.3-7.12-2-8.62 1.4-19.34 3.72-11.62 15.02-19.12 17.62-21.48 11.66-10.78 27.4-13.49998 27.4-14.75998.16-4.18 3.2-7.26 10.52-6 4 .66 2.4 3.9 4.76 3.48 21.32-3.85999878 24.46-2 41.8 3.18 3.174 1.15982 6.123 2.85802 8.72 5.01998 3.58 2.56 4.52 2.62 6.86 6.72 4 7.16 4 7.32 4.62 7.12 9.12-3.7 24.18-7.5 34-7.48 5.7 0 9.82.84 10.56 6.42.64 4.88.98 4.98.48 8.26-.36 2.38-27.5 15.4-29.72 16.44-12 5.54-11.84 4.68-11.64 5.84 1.76 9.86 1.14 9.5 2.26 10.14 5.1 2.92 2.82 6 .62 4.36-.7-.54-.98-.92-1.12-.92s0 .42-.16 1.58c-1.12 14.36-1.52 16-.26 18.56s5.3 3.4 8.12 3.28c5.52-.22 8.7 5.34 4.28 13.24-1.177 2.064-3.017 3.671-5.22 4.56-2.86 1.04.82 4.34-4.34 31.66-.38 2-2 6.32-2.56 8.46-2.14 8.16-12.12 10.78-20.22 7.76-20.36-7.62-18.22-8.36-20.84-1.78-3.52 9.04-3.52 8.72-2.38 9.3 5.52 2.86 4.16 2.8 7.26 6.64 4.78 6 .74 16.52 2.64 17.22 6.557 2.535 12.556 6.326 17.66 11.16 12.82 12.26 9.7 11.88 12.24 10 2.91-2.467 5.521-5.266 7.78-8.34 4.76-5.86 4-5.56 7.68-16 1.299-2.993 2.342-6.091 3.12-9.26.5-3.28 2-5.28 4.2-13.1.8-2.78 2-4.58 11.68-15.58 6.72-7.6 7.48-8.12 11.22-8.96 4.8-1.08 5.58-.48 7.86-1.86 12.64-7.64 19.5-1.78 54.8 13.64 39.68 17.34 24.1 9.52 46.36 20.62 29.74 14.84 34.34 16.18 37.16 22.62 4 9.46 3.5 10.76 2.74 14.92-.48 2.64 1.44.72 3.46 9.4zm-4.28 13.84c2-5.14 3.16-7.2 2.36-10-3.5-12.3-1.44-10.68-7.42 1.78-1.62 3.4.3-.98-8.64 16.88-1.316 2.67-3.265 4.976-5.678 6.719-2.412 1.744-5.214 2.87-8.162 3.281-3.54.42-2.9-2.42-3.08-2.86-1.1-2.8 1.14-5.18 1.56-6.86 2.58-10.18 8.6-10 14-20.46 1.436-2.352 2.262-5.027 2.4-7.78 0-6.12-4-7.38-5.48-5.14-3.48 5.06-4.58 9.54-10 13.52s-3.32 7.16-10.74 13.5c-4.64 4-10.36 12-10.7 18.28-.18 3.06-1.8 4.1-3.26 10.26-.58 2.42-.94 4.88-1.44 7.32-4.52 21.48-4.18 19.18-1.8 19.48 15.26 1.82 11.28 3.62 15.54.78 1.637-1.161 3.56-1.854 5.561-2.005 2.001-.152 4.006.244 5.799 1.145 8 5.08-.82 4.3 14-6.92 6.16-4.66 7.84-9.72 9.58-12.46 1.734-2.349 3.134-4.927 4.16-7.66 1.155-2.981 1.699-6.164 1.6-9.36-.34-3.72 1.32-7.62 1.14-8.8-1.02-7.72-2.64-9.06-1.3-12.64zm-6.48-12c2.52-5.2 6.6-13.62 4.4-18.94-2.36-5.64-3.4-9.62-6.96-11.48 0 0-29.64-16.32-49.44-24.72-60.1-25.38-64.22-30.24-74-28.56-2.953.483-5.608 2.079-7.42 4.46-1.38 1.8-2.92 4.66-6 9.26-.058.073-.106.154-.14.24h.22c7.36-3.18 7.12-2.98 7.2-3.66.64-5.22 7.62-6.86 10.22-3.52.741.819 1.235 1.831 1.425 2.919.191 1.088.07 2.207-.348 3.23-.418 1.022-1.116 1.905-2.015 2.548-.898.642-1.959 1.018-3.062 1.083-1.22 0-.34 1.86-2.82 4.92-1.858 2.746-4.583 4.788-7.74 5.8 9.84 7.26.6 14-4.16 11.38-1.166-.731-2.123-1.751-2.78-2.96-1.54 2-1.68 10.9-1.78 13.04 0 .12.48 0 1.64.3 2.041.716 4.044 1.537 6 2.46 1.84.65 3.538 1.648 5 2.94.66.8.5 1.62-.14 2.64-1.34 2.16-2 2.44-6.18.52-8.28-3.8-7.56-4.2-8-2.74-.66 2.36-1.1.96.86 1.8 8.24 3.56 9.1 4 10.12 4.96 1.36 1.32 0 5.66-3.2 4.6-12.6-4.3-9.26-7.74-12.58-1.24 0 0-4.56-1.48 104.44 50.36 4.34 2-2.62-3.32 12.52-18.82 8.98-9.2 5.04-8.98 12-14.76 3.72-3.06 5.82-7.26 9.02-12.68.14-.24.5-.5.3-1.08-.561-.748-.935-1.619-1.091-2.541-.157-.922-.091-1.868.191-2.759.206-.811.58-1.569 1.096-2.227.517-.658 1.165-1.201 1.904-1.593 6-3.54 14.18 4 7.42 11.48-1.76 2 7.52 8.14-11.76 27.64-2.025 2.261-3.407 5.023-4 8-1.72 4.6-2.92 6.14-1.44 5.72 8.32-2.44 9.62-4.4 21.08-28.04zm-5.36-15.72c.41-.405.735-.888.955-1.42.22-.533.33-1.104.325-1.68.022-.525-.059-1.05-.239-1.544-.181-.494-.457-.947-.812-1.334-.356-.387-.785-.701-1.261-.922-.477-.222-.993-.348-1.518-.37s-1.05.059-1.544.239c-.494.181-.947.457-1.334.812-.387.356-.701.784-.922 1.261-.222.477-.348.993-.37 1.518 0 1.56 1.06 2.9 1.86 2.88 4.14-.2 3.76 1.62 4.86.54zm-16.1 95.86c.64-5.54-5.9-7.76-9-5.72-1.639 1.013-2.81 2.634-3.257 4.508-.446 1.875-.13 3.85.877 5.492 2.48 4.52 10.6 2.42 11.38-4.3zm-26.38-43.16c.62.28 1.38-1.84 1.42-2.58-1.24-1.02-13.36-6-23.4-11.2-5.26-2.76-21.36-10-38.16-18.14-18.58-8.96-38-18.74-44-21.22-1.24-.34-1.78 2-2 2.18s32 15.72 62.5 30.14c16.92 7.92 33.72 16.3 43.64 20.82zm-76.94-106.64c.744-.372 1.345-.98 1.707-1.729.361-.749.465-1.597.293-2.411-.3-1.26-1.46-2.86-2.84-2.84-3.2 0-4.56 2.96-4 2.96 4.06 0 2.56 5.2 4.84 4.02zm-4.64 1.38c0-.72-.32-3.12-2-2-2.865 1.528-5.809 2.903-8.82 4.12-10 3.76-7.82 2.78-11.64 10.46-2.94 6-9.1 12.48-9.7 9.02-.24-1.36 2.56-2.96 4-5.12 4.24-6 4.9-9.76 6.36-11.88 3.5-5.08 6.48-1.82 9.52-7.6 3.88-7.4 6.36-9.02 2-7.56-2.94.98-4.26.44-9.3 6.18-11.64 13.3-12.48 14.7-13.16 17.4-.82 3.28-2.76 8-3.74 11.28-1.062 5.207-2.685 10.283-4.84 15.14-3.1 8-3.72 9.26-9.14 15.3-6.72 7.46-7.88 5.76-6.12 8.64 4 6.5 14.68 21.18 17.24 24.92.8 1.16-.14 1.1 7.34-13.3 5.46-10.52 6.2-10.26 14.78-14.48-2.775-1.522-5.648-2.858-8.6-4-1.88-.9-1.44 2.12-7.7 2.68-.7 0-1.26-.14-1.42-1.02-.5-2.68 5.16-.24 8.46-6.8 5.64-11.16 6.82-14.34 7.78-18.94.1-.5-.2-17.42 8-22.14 3.04-1.56 10.02-4.44 10.7-10.3zm-4.7 40.1c.14-.92-3.28-2.16-4.58-2.72-2-.9-5.04-2.22-5.4-2.26s-.68.78-.9 1.64.62 1.16 8.98 4.86c.86.38 1.78-.58 1.9-1.52zm-.5-21.78c.065-.978-.23-1.946-.831-2.72s-1.465-1.301-2.429-1.48c-1.08.044-2.112.461-2.92 1.18-.628.949-.962 2.062-.96 3.2.225.848.697 1.611 1.356 2.191.658.58 1.474.952 2.344 1.069.903-.03 1.76-.402 2.399-1.041.639-.638 1.011-1.496 1.041-2.399zm-2.7 29.4c0-.94.22-.74-6-3.52-2.36-1.04-3.86-2-4.56-.8-.173.256-.246.566-.206.872.041.306.192.586.426.788 2.743 1.604 5.613 2.982 8.58 4.12.84.4 1.7-.44 1.76-1.46zm-8.92-168.7c.3-.3.28-.36-.4-5.28 0-.76-1.02.5-4 2.68-13.24 9.8-68.94 33.22-110.66 43.08-11.14 2-38.28 5.84-49.26 3.38-.78-.38-.7.88-.42 2s.48 2 1.14 2.12c2.14.68 4.1.62 11.72.5 21.84-.32 18.58-1.56 34-3.36 0 .84 52.7-11.72 101.22-35.46 10.18-4.86 12.32-5.3 16.66-9.66zm-3.38-7.72c1.08-.98-.4-2-1.14-2-13.22-1.52-36.68 6-37.48 6.72 1.56 5.46 1.86 3.84 4.34 12.82.46 1.66-.14 1.4 8.54-2.6 6.86-3.14 6-2.44 16.52-8 7.38-3.94 4.84-2.98 9.3-6.94zm-29.18 84.86c2.127-.866 3.916-2.398 5.099-4.367s1.695-4.2682 1.461-6.553c-.44-4.38-5.22-1.3-9.82-3.74-3.74-2-4.92-4-4.96-8.62 0-6.12 2-17.48.78-17.56-1.49-.3121-3.042-.1076-4.4.58-4.38 2.8-4.64 6-5.34 8.32-.28.94-2 .96-2-.82 0-5.28 4.82-11.72 11.34-11.04.7 0 .46-1.56.28-3.06-.98-8.16 0-6.88-9.32-3-12.52 5.16-12.32 4.52-12 5.78 1.31 5.1344.794 10.5644-1.46 15.36-.68 1.26 1.04 3.76 1.24 5.42.84 6.92-3.62 6.7-3.28 9.28.42 3.26-3.46 5.3-4.5 3.58s2.36-2 1.76-4c-.76-2.66 1.52-3.06 2.56-4.68 3.16-4.92-2.36-6.48-.12-10.96 2.004-4.1652 2.58-8.8744 1.64-13.4-.9-2.86-30.62 11.8-69.1 16.64-28.74 3.6-27.28-3-27.2 4.5 0 6.14.64 7.18 4.32 12s-1.88 8.52 2.62 16c1.46 2.44 4.98 6.48 6.54 8.88s.14 4.98 1.44 6.8c5.76 8 10.72 3.52 12.38 7.64.44 1.06 1.5-.48 6.18.7 1.1258.22 2.2744.3 3.42.24.24 0 .52-.38.68-.66s-2-1.44-2.32-1.64c-5.26-2.46-6.38-7.24-4.76-7.68s1.34 3.02 5.84 5.12 6.86 4.64 11.42 3.14c1.02-.34.16-.38-1.84-3.22-1.08-1.56-3-5.42-1.24-5.7 2.54-.38-.1 1.54 7 8 1.42 1.28 1.74.88 2.42-.76 1.133-2.267 1.812-4.733 2-7.26 0-1.52 2.76-1.14 2.48 1.22s-.9 4.56-.4 4.4c1.8-.58 5.48-.22 7.36-9.44.14-.76.2-1.3 1.14-1.38.171-.041.348-.041.519-.001s.33.12.464.233c.134.112.24.255.309.416.069.162.099.337.088.512.14 2.44.22 2.74-2.9 8.82-2.66 5.16-8.18 2.16-9.48 5.32s-4.18 1-5.22 1.2c-5.18 1-4.56 1.56-9.56.16-1.74-.5-.14 2-3.62 2.3-4.96.4-5.48-1.32-5.86 0-.84 3.04-.94 2.82-2.94 10.16-.4 1.5 20.72 2.68 24 3.46 6.64 1.56 17.1 4.78 22.94 8.34 1.46.86 4.36-16 8.78-14.68 22.46 7.06 32.78 16.24 38.18-8 2.28-9.011 3.462-18.265 3.52-27.56 0-2.88.46-4.34 1.44-4.74zm-7.62-65.02c.66-.28.76.32-3.34-10.74-2.44-6.58-2-4.7-6.16-12.28-1.218-2.4049-3.136-4.3849-5.5-5.68-9.62-6.89998-5.5-3.86-15.14-7.41998-14.68-5.44-34.7-1.44-35.14 0-.88 3.03998-4 3.77998-7.2 3.99998-5.86.48-5.4-2.71998-8.74-1.08-2.2 1.08-12.46 3.82-21.78 11.04-7.66 6-16.5 13.04-19.32 22.32-1.1392 3.0175-1.7285 6.2147-1.74 9.44.94 19.02-.44 21.1 4.74 20.58-.8653-4.2271-1.334-8.5257-1.4-12.84.52-9.56-.54-12.3 8.12-21.34 4.38-4.58 24.94-8.86 32.4-4s10 11.02 12 19.26c.8 3.2 2.58 8.96 3.08 12 21.1-5.9 51.16-17.56 65.12-23.26zm-33.82 135.12c.14-3.08-2.24-4.9-3.48-7.16-.86-1.54-1.64-1.84-8-5.42-11.54-6.32-21.86-7.88-32.52-9.14-7.2-.84-11.2-1.56-16.62-1.72-3.56-.1-8.14.62-10.18-1.06-1.02-.84-6 9.52-3.36 13.7 1.1512.409 2.3588.639 3.58.68 9.88.74 5.08.86 24 4.9 11.38 2.42 13.06 4 18.92 5.6 8.72 2.3 7.38.76 26.66 8.66 1.36.54.54.12 1-9.04zm-40.26-169.99998c2.68.22 6.42-.14 6.32-2.98 0-2.54-3.32-2.9-6-2.62-4.06.38-4.24 5.26-.36 5.56zm6.52 58.73998c-.361-1.8023-.815-3.5847-1.36-5.34-2.9-7.04-4.32-29.34-25.5-25.76-3.44.58-7.08-.12-15.02 3.88-4.0862 2.7531-7.0904 6.8388-8.5 11.56-1.0588 7.3289-.7331 14.7913.96 22 1-.12 2.16 0 3.52 0 .78 0 .4-.58-.6-5.02-3.12-13.86.44-17.34 2.64-20.8 2.84-4.44 6.48-5.64 12.44-6.54 3.8124-.5659 7.6875-.5659 11.5 0 3.78 1.08 8.14 4.28 11.5 15.72 2.38 8 2.48 11.74 3.44 11.52 1.56-.4 3.2-.82 4.94-1.26zm-11.06 2.44c2-.56 3.32-.82 3.18-1.34-2-7.2-3.12-14.9-7.56-20.74-4-5.32-8.8-4.24-13.54-4-4 .24-10.16 1.44-12.66 4.86-1.7108 1.9406-2.9255 4.2671-3.54 6.78-.24 1.72-.56 6.88 2.14 17.84.28 1.16 23.6-.96 31.98-3.4z"/><path d="m341.3 209.72c0 3.36-2.96 6.8-5.78 6.74-1.748-.033-3.419-.729-4.674-1.947-1.254-1.218-2-2.866-2.086-4.613-.059-.851.057-1.706.339-2.511.283-.806.727-1.545 1.304-2.173.578-.629 1.278-1.132 2.057-1.481s1.621-.535 2.475-.547c.853-.012 1.7.15 2.489.476s1.503.809 2.099 1.421c.596.611 1.06 1.337 1.366 2.134.305.797.445 1.648.411 2.501zm-2.52 0c-.029-.907-.4-1.769-1.038-2.414-.638-.646-1.496-1.026-2.402-1.066-1.051.03-2.051.461-2.795 1.205s-1.175 1.744-1.205 2.795c.145.998.646 1.91 1.41 2.568.765.658 1.741 1.018 2.75 1.012 1.32.02 3.2-2.3 3.28-4.06z"/><path d="m310.6 210.48c3.72-3.76 7.76 2 6.32 4-3.18 4.52-9.76-.52-6.32-4zm5.04 2.66c0-.88-1.34-2.22-2.32-2.26-2.5 0-3.04 3.66.5 3.72.426.008.842-.133 1.175-.4.332-.267.561-.642.645-1.06z"/><path d="m318.72 177.54c-4.84-2.2-36.22-16-40.16-17.84-18.74-8.4-26.52-14.5-29.14-9.12-10.54 21.72-19.62 43.2-23 50.52-2.3 4.96 1.78 4.9 26 16.36 36.48 17.18 49.2 23.7 53.72 26 2.6 1.28 4.46.54 5.38-.98 2-3.22 4.58-11.26 12-27.44 10.36-22.66 6.4-11.58 12.12-26.92 1.34-3.44.52-2.66-16.92-10.58zm13.8 12.82c0 .3-.86 2.42-1.32 2.56-1.141.266-2.309.4-3.48.4-.44 0-.16-1.68-.18-2.14 0-1.52 0-1.52 1.44-1.5s3.66-.22 3.54.68zm.98-2.48c-2.14.74-.32.28-6.16.36-.6 0-1.08 0-1.22.32s.12 1.12-.44 1.24c-.663.095-1.337.095-2 0-.2 0-.24-.4-.38-.5-.236-.586-.661-1.077-1.209-1.392-.548-.316-1.185-.438-1.811-.348-.542.004-1.075.143-1.55.405s-.877.638-1.17 1.095c0 .12 0 .5-.36.5-.68 0-2 .2-2.16 0-.119-.437-.179-.887-.18-1.34-.18-1.78-1.5-1.42-5.5-1.38-2.9 0-4.5-.34-4.8 1.56-.42 2.52-.38 4.54 1.46 4.7 8.14.76 8.8 1.24 9.06-1.24 0-.32-.22-1.04.22-.96.82 0 1.12-.14 1.68.16.14 0 .1.48.16.8.184.689.591 1.298 1.157 1.733.566.434 1.259.67 1.973.67.713 0 1.407-.236 1.973-.67.566-.435.973-1.044 1.157-1.733.14-.34 0-.64.36-.76.607-.12 1.233-.12 1.84 0 .22 0 .16.3.2.52 0 .58 0 1.62.12 2.32s.22.78 1.02.78c6.7 0 4-3.72-9.68 28.22-5.88 13.74-7.16 19.54-9.66 18.38-26.3-12.22 8.2 3.24-76.8-36.54-4-2-2.56-1.52 4.36-17.16.8-1.76 6.5-16.8 15.6-34.9 2.24-4.46-2.96-4.26 69.4 28 14.7 6.56 12.34 5.04 13.34 7.16zm-13.22 5.12c-.272-.012-.539-.077-.785-.192-.247-.115-.468-.277-.652-.478-.184-.2-.327-.435-.42-.691s-.135-.527-.123-.799.077-.539.192-.785c.115-.247.277-.468.478-.652s.435-.327.691-.42.527-.135.799-.123c2.48-.08 2.2 4.14-.18 4.14zm-8.38-1.02c-5.74-.42-6.92.48-5.78-3.64 0-.2 1-.26 1.54-.26 6-.14 6-.4 6 2.18.04 1.96-.04 1.9-1.66 1.78z"/><path d="m300.28 195.46c.843.152 1.61.584 2.176 1.227s.899 1.458.944 2.313c-.018.949-.413 1.853-1.098 2.511-.684.658-1.602 1.018-2.552.999-.949-.019-1.853-.414-2.511-1.098-.658-.685-1.018-1.603-.999-2.552.165-.952.661-1.815 1.4-2.437s1.674-.963 2.64-.963zm-.28 5.54c.395-.037.77-.19 1.078-.441s.534-.587.649-.967c.116-.379.117-.785.001-1.164-.115-.38-.341-.717-.648-.968-.562-.219-1.182-.24-1.756-.058-.575.182-1.071.556-1.404 1.058-.6 1.16.48 2.54 2.08 2.54z"/><path d="m298.76 216.34c-2.5 4.56-4.98 7.68-9.62 8.72-.68 0-1.16-.68-.68-1.04 1.24-.88 2.4 0 6.58-4.62 1.062-1.074 1.857-2.383 2.32-3.82.64-1.12 1.78.04 1.4.76z"/><path d="m293.46 213c.075-.096.171-.173.28-.226s.229-.081.35-.081.241.028.35.081c.11.053.205.13.28.226-.1 2.24-1.16 3.46-7.12 8.26-.46.3-1.64.88-2.14.68-.086-.032-.162-.084-.223-.153-.061-.068-.104-.15-.125-.239-.022-.088-.022-.181.001-.27.022-.088.066-.17.127-.238 1.02-1.1 2.26-.68 6.12-5.04.81-.918 1.514-1.925 2.1-3z"/><path d="m291.32 170.58c4.52 0 3.82 6.78-.34 6.8-1.68 0-3.64-1.84-3.46-3.4.086-.942.526-1.817 1.231-2.448s1.623-.971 2.569-.952zm-.32 5.3c2 0 2.98-3.72.4-3.84-3.14-.12-3.22 3.78-.4 3.84z"/><path d="m288.62 210.8c.064-.072.145-.127.235-.16s.188-.043.283-.029.185.051.263.108c.077.058.138.134.179.221.098.175.159.368.179.568.021.199.001.401-.059.592-1.2 4-4.66 7.38-7.76 7.76-.2 0-.28 0-.44-.2-.085-.071-.142-.17-.16-.28 0-.12 0-.54.12-.6 3.128-1.599 5.561-4.288 6.84-7.56.084-.156.192-.298.32-.42z"/><path d="m289.06 177.6c.14 1.24 0 1.32-.82 2.2-.064.064-.15.099-.24.099s-.176-.035-.24-.099c-.42-.48-.54-.5.7-2.34.21-.015.419.034.6.14z"/><path d="m286.74 181c.22 0 .42.3.74.6.047.048.072.113.072.18s-.025.132-.072.18l-1.06 1.26c-.05.053-.111.095-.178.123-.067.029-.139.044-.212.044s-.145-.015-.212-.044c-.067-.028-.128-.07-.178-.123-.126-.095-.217-.228-.26-.38-.08-.58.94-1.84 1.36-1.84z"/><path d="m285.12 184.8c.212.163.354.401.395.666.041.264-.022.534-.175.754-1.02 1.48-1.4 2.14-1.88 1.76s-.42-.74 1-3.04c.087-.081.195-.136.311-.161.116-.024.237-.017.349.021z"/><path d="m282.56 189.72c.177.118.307.296.366.501.058.205.042.425-.046.619-.68 1.22-1.04 2-1.7 1.66s.5-3.1 1.38-2.78z"/><path d="m280.32 194.02c.154.09.278.222.36.38.073.095.113.211.113.33s-.04.235-.113.33c-1.02 1.64-1.58 2.66-2 2.14s-.34-.92.98-2.98c.087-.082.192-.142.307-.177.114-.035.235-.042.353-.023z"/><path d="m280.94 210.46c-.18 2.74-.24 2-4 3.1-1.58.44-1.64-.46-2.4-4.76-.3-1.72 0-1.1-4.22 1.52-1.56.98-1.36.24-2.94-2.94-.68-1.34-.62-.9 9.74-8.92 1.56-1.16 2.1-.14 3.82 12zm-4 1.48c3.64-.58 2.98-.16.8-11-.28-1.48-.14-.86-7.76 5.04-1.24.98-1.26.92-.46 2.34.26.48.44.48.86.18 5.42-3.86 4.82-3.66 6.14 2.68 0 .28.26.78.36.76z"/><path d="m272.4 167.76c.756.072 1.461.416 1.983.967.522.552.827 1.274.857 2.033-.09.87-.474 1.683-1.088 2.305-.615.621-1.423 1.015-2.292 1.115-.76-.1-1.454-.483-1.943-1.072-.49-.59-.739-1.343-.697-2.108.139-.799.518-1.536 1.086-2.115.568-.578 1.298-.971 2.094-1.125zm1.34 2.94c0-.54-.76-1.46-1.36-1.44-.25.01-.496.07-.723.177s-.43.257-.598.444c-.168.186-.297.404-.379.641s-.116.488-.1.738c.042.412.211.8.483 1.112.273.311.635.531 1.037.628.508-.115.956-.413 1.259-.837.302-.424.438-.945.381-1.463z"/><path d="m270 197.3c1.22 2.3 1.28 2.7 1.12 3.16-.054.133-.156.24-.286.299-.131.06-.279.067-.414.021-.6-.22-.7-.74-1.62-2.76-.38-.7.48-1.78 1.2-.72z"/><path d="m268.84 193.44c.093.23.098.486.013.719-.085.232-.254.425-.473.541-.172-.003-.34-.048-.49-.132-.15-.083-.277-.203-.37-.348-1.24-2.64-1.26-3.18-.74-3.74s1.4 1.44 2.06 2.96z"/><path d="m264.8 184.12c.489.92.891 1.885 1.2 2.88.037.177.01.361-.076.519-.086.159-.226.282-.394.347-.169.065-.355.068-.525.008s-.314-.178-.405-.334c-.2-.42-.5-1.18-1.2-2.78-.049-.096-.075-.202-.075-.31s.026-.214.075-.31c.14-.2.28-.4.42-.4.182-.027.369-.007.54.06.172.067.324.177.44.32z"/><path d="m263.74 200.74c.097-.014.196-.005.289.027.092.031.176.084.245.154.068.071.119.156.148.25.029.093.035.193.018.289-.924 1.321-1.601 2.798-2 4.36-.44 2.3.5 4.16-.42 4.26s-1.64-2.5-.88-4.94c.86-2.8 1.08-4.14 2.6-4.4z"/><path d="m263.58 179.62c.097.215.113.457.043.682-.071.225-.221.417-.423.538-.136.032-.279.027-.413-.016-.134-.042-.254-.119-.347-.224-1.34-2.86-1.82-3.88-1.1-4.22s.9.32 2.24 3.24z"/><path d="m260.1 170.76c.56 1.18 1.56 3.24.66 3.36s-.94-.46-1.68-2.22c-.088-.231-.103-.484-.042-.724s.194-.455.382-.616c.121-.028.247-.025.366.011.12.035.228.1.314.189z"/><path d="m256.46 158.3c.611.074 1.195.299 1.699.653s.912.827 1.189 1.377c.278.551.414 1.161.399 1.776-.015.616-.183 1.218-.487 1.754-.6.706-1.427 1.182-2.339 1.346s-1.852.006-2.661-.446c-.665-.262-1.224-.739-1.586-1.355-.363-.616-.508-1.336-.414-2.045.12-2.36 3.1-3.26 4.2-3.06zm2 3.76c-.074-.543-.302-1.053-.656-1.471s-.821-.727-1.344-.889c-.461-.084-.936-.03-1.367.155-.43.185-.797.493-1.053.885-1.4 1.74.16 3 1.9 3.24.293.054.595.046.885-.023s.563-.199.8-.379c.237-.181.434-.41.578-.671s.231-.55.257-.847z"/><path d="m258.32 166.26c.36.5 1.2 1.86.72 2.26s-1.02-.2-1.72-1.28c-.122-.179-.177-.396-.155-.612.021-.216.119-.417.275-.568.24-.22.56-.3.88.2z"/><path d="m256 203.4c.14-2.26.74-4.56 2.48-4.6.109-.006.218.02.314.073.095.053.174.133.226.229.053.097.077.206.069.315-.007.109-.045.214-.109.303-.86.81-1.376 1.92-1.44 3.1-.499 2.197-.374 4.49.36 6.62.019.109.014.22-.013.327-.028.107-.078.207-.147.293-.289-.011-.567-.114-.794-.294-.226-.18-.39-.427-.466-.706-.454-1.85-.616-3.76-.48-5.66z"/><path d="m251.38 175.62c3.14 1.44 3.82 2 3.36 3.14-4 9.58-3.72 8.34-4.82 9.28-2.28-.86-4.82-1.38-4.14-2.96 4.22-9.76 4.36-10.08 5.6-9.46zm-1.36 10.14c4-8.7 4-7.12 1.04-8.66-1.04 1.58.24-.74-3.2 6.54-1 2.1-.9 2 1.02 2.44.54.14.88.24 1.12-.32z"/><path d="m241.54 163c-.031 1.421-.61 2.774-1.617 3.777s-2.362 1.578-3.783 1.603c-1.472.038-2.9-.505-3.974-1.512s-1.709-2.397-1.766-3.868c-.4-7.08 10.44-8.48 11.14 0zm-2.38 0c.016-.854-.308-1.679-.901-2.294-.293-.305-.644-.549-1.031-.718-.388-.169-.805-.26-1.228-.268s-.843.068-1.237.222c-.394.155-.753.385-1.057.679-.616.592-.97 1.405-.986 2.259-.062.428-.034.864.081 1.281s.315.806.587 1.142c.272.337.611.613.995.812s.805.316 1.237.345c.47-.005.935-.103 1.367-.288.432-.184.824-.453 1.153-.789.328-.336.588-.734.763-1.17s.262-.903.257-1.373z"/><path d="m230 182.8c2.6 1.28 1.18 5.22-1.42 5.44-2-.62-.7 0-10-4.16-2.76-1.28-1.62-4.46 0-5.46 1.14-.72 1.58-.7 11.42 4.18zm-1.72 4c.98.44 1.62-2.18 1.26-2.4s-8.88-4.18-9.56-4.3c-.286-.012-.567.084-.785.269-.219.186-.36.447-.395.731-.048.272-.027.551.06.813s.239.498.44.687c2.881 1.618 5.883 3.009 8.98 4.16z"/><path d="m175.32 123.26c.98.44 1.18 1.34.76 2.42-1.645 4.487-3.778 8.779-6.36 12.8-1.54 2.28-4 3.34-5.58 1.86-3.82-3.64-3.42-15.38-5.18-23.52-.38-1.8.66-2.66 2.6-1.44 8.44 5.34 4.64 3.62 13.76 7.88zm-1.44 3.32c.88-2-.36-1.82-1.22-2.2-3.873-1.955-7.626-4.139-11.24-6.54.48 3.68 1.06 14.36 2.8 19.12.74 2 2.14 2.46 3.16 1.22 2.722-3.528 4.912-7.436 6.5-11.6z"/><path d="m168.66 89.4201c1.3.52 1.28 2.3.88 3.64-.54 1.74-3.24 2-3.46-.82.42-1.36.68-3.56 2.58-2.82z"/><path d="m142.5 116.58c.64 3.48-3.12 7.86-6.52 8.94-8.9 2.78-21.56-7.18-20.44-21.42.34-4.46 0-7.12 2-10.28 4.16-6.26 12-9.16 18.92-5.04 2.96 1.78 6 7.38 4.18 8-1.52.46-1.52-1.58-3.58-4.26-3.06-4.06-11.5-4.92-17.06 2.48-2.28 3.06-2 6.12-2 11.06-.82 5.34 4 14.52 12.88 16.9 5.42 1.46 8.96-3.7 9.12-6.22-.01-.164.011-.329.065-.484.053-.156.136-.3.245-.423.108-.124.24-.225.388-.297.147-.073.308-.115.472-.126.164-.01.329.011.485.065.155.053.299.136.422.245.124.108.225.24.297.388.073.147.116.308.126.472z"/><path d="m136.76 102.72c1.44 3.28-2.46 5.14-3.28 6.8-.194.372-.295.785-.294 1.205.002.419.105.832.302 1.203.197.37.482.687.829.922.347.236.746.384 1.163.43.307.075.577.258.761.516.183.258.268.572.239.887s-.17.609-.398.829c-.227.22-.526.35-.842.368-3.2.54-7.8-5.14-2-10.48 1.16-1.04 1.08-1.22.46-2.64-3.18-6.94-7.68-5.54-8.8-2.66-.317.988-.564 1.997-.74 3.02.4 0 .26 2-.48 2-.26 0-1.1-.26-1.24-.66-2.44-7.46 7.92-16.16 14.32-1.74z"/><path d="m104.52 122.24c.12 2.24-2.12 1.02-2.2.46-.21-3.103-.21-6.217 0-9.32 0-.84-.36-2.42 1.06-2.78 2.62-.68.96 8.58 1.14 11.64z"/><path d="m97.38 123.56c0 2.62-3.12 1.58-4.14-1.78-2-6.5-3.06-5.06-2.78-6.8.22-1.44 1.56-1.12 2.12-.58 2.18 2.08 1.68 2.96 4.8 9.16z"/><path d="m89.3801 125.2c-.22.32-.4.9-.76 1.04-.2408.079-.4955.105-.7473.078-.2518-.028-.4948-.109-.7127-.238-9.08-6.94-4.42-5.7-8-12-.94-1.62.56-2.56 1.78-1.32 3.76 3.88.44 5.3 5.62 9.08.8978.701 1.7464 1.463 2.54 2.28.1.18.12.58.28 1.08z"/><path d="m83.46 65.2c.34 1.68-1.36 1.58-3.04 1.78-5.12.12-6.64-4.8-7.84-3.66-.8639.2383-1.7738.2562-2.6464.052s-1.68-.6239-2.3485-1.2208-1.1767-1.3518-1.478-2.1958c-.3014-.844-.3863-1.7501-.2471-2.6354 0-.94.24-2.6 1.12-2.94 2-.76.86 2.12 1.02 4.12.12 1.64 2.38 3.42 3.76 2 .48-.54.52-1.5 1.52-1.5 2.26 0 0 2.76 5.36 5.06 1.6.72 4.5-.4 4.82 1.14z"/><path d="m77.64 126.4c.1602.067.3057.165.4281.288s.2193.269.2852.43c.066.161.0996.333.099.506-.0005.174-.0353.346-.1023.506-.0669.16-.1648.306-.288.428s-.2693.219-.4299.285c-.1607.066-.3327.1-.5064.099-.1736 0-.3455-.035-.5057-.102-3.86-1.32-3.54-3.82-4.12-6.8s-3.22-4-4.86-5.22c-3.24-2.22-2.26-6.22-.62-6 1.28 0 1 1.58 1 1.54-.54 3.44 4.3 2.34 6.42 7.38 1.34 3.08.4 5.54 3.2 6.66z"/></g></svg>